<svg xmlns="http://www.w3.org/2000/svg" viewBox="0 0 23 23"><path d="M1 1h7v7h-7zM9 1h2v1h-1v1h-1zM13 1h1v3h-2v1h1v1h1v5h-1v2h-1v1h-1v-1h-1v1h1v3h-2v-5h1v-1h-2v-1h-2v-1h3v1h2v1h1v-3h1v-1h-1v-1h-2v-1h1v-1h-1v-1h2v-1h1zM15 1h7v7h-7zM2 2v5h5v-5zM16 2v5h5v-5zM3 3h3v3h-3zM17 3h3v3h-3zM9 4h1v1h-1zM9 7h1v2h-1zM11 7h1v1h-1zM1 9h1v2h-1zM3 9h2v1h1v1h-1v1h-3v-1h2v-1h-1zM15 9h1v1h-1zM18 9h1v1h-1zM20 9h2v3h-1v-2h-1zM19 10h1v1h-1zM7 11h1v1h-1zM14 11h3v1h-3zM18 11h1v2h-2v-1h1zM1 12h1v2h-1zM5 12h2v1h1v1h-5v-1h2zM13 13h2v1h-2zM16 13h1v1h-1zM21 13h1v2h-1zM12 14h1v1h2v-1h1v2h-4zM17 14h3v1h-2v1h-1zM1 15h7v7h-7zM2 16v5h5v-5zM18 16h3v1h-1v1h-2zM3 17h3v3h-3zM11 17h1v1h-1zM13 17h1v1h-1zM15 17h2v1h-1v2h-1zM9 18h1v2h-1zM12 18h1v1h-1zM20 18h1v1h-1zM11 19h1v1h-1zM13 19h1v1h-1zM18 19h2v1h-2zM10 20h1v1h1v1h-3v-1h1zM14 20h1v2h-1zM21 20h1v1h-1zM16 21h4v1h-4z"/></svg>